Patient4_TMGait_0pt7_01_left_28_EMG.mot
version=1
nRows=36
nColumns=33
inDegrees=no
endheader
time	1LAddLong	2LGlutMax	3LGlutMed	4LIliopsoas	5LSemiMemb	6LBicFemLong	7LRecFem	8LVastMed	9LVastLat	10LGasMed	11LTibAnt	12lTibPost	13LPeroneusLong	14LSol	15LExtDigLong	16LFlexDigLong	17RAddLong	18RGlutMax	19RGlutMed	20RIliopsoas	21RSemiMemb	22RBicFemLong	23RRecFem	24RVastMed	25RVastLat	26RGasMed	27RTibAnt	28RTibPost	29RPeroneusLong	30RSol	31RExtDigLong	32RFlexDigLong
32.26	0.011902	0.73013	-0.024719	0.007477	-0.005341	-0.025635	0.047913	0.011444	0.06073	-0.040131	0.18234	0.005798	0.007324	-0.022583	-0.033569	-0.007172	-0.004578	-0.79147	-1.1049	-0.03479	-0.00885	-0.031738	0.20706	-0.25284	-0.30456	0.012817	0.18082	-0.016174	-0.14526	0.46356	-0.002289	-0.001831
32.261	0.01358	0.69092	-0.046539	0.025482	-0.010834	-0.005951	0.045166	0.012512	0.088959	-0.041809	0.066223	-0.002289	0.002441	0.018005	-0.023499	-0.007782	-0.010529	-0.73883	-0.4039	-0.11475	-0.024261	-0.05661	-0.10941	-0.20676	-0.22812	0.004272	0.18066	-0.033569	-0.36972	0.19043	-0.005188	0.001831
32.262	0.010071	0.62836	-0.050354	0.014038	-0.009766	0.005188	0.048981	0.004425	0.13534	-0.024872	-0.030975	-0.002136	0.025635	0.033112	0.11261	0.003357	-0.00824	-0.73456	-0.3717	-0.1033	-0.024414	-0.12909	-0.63553	-0.15121	-0.086212	-0.009003	0.12024	-0.033264	-0.38742	0.004578	-0.003815	-0.005035
32.263	0.013275	0.58975	-0.045166	0.012054	-0.012512	-0.019684	0.046082	0.025177	0.17517	-0.011292	-0.046234	-0.000153	0.040283	-0.004578	0.12344	-0.006256	0.0177	-0.64804	-0.69778	-0.080872	-0.028992	-0.075989	-0.51575	-0.003357	0.1651	-0.007019	0.10788	-0.004272	0.73364	-0.051575	-0.003967	0.000458
32.264	0.011597	0.54703	-0.06134	0.032349	-0.013885	-0.018463	0.036621	-0.001221	0.20813	-0.035553	0.08255	0.002136	0.069427	0.059052	-0.027466	-0.000305	0.028687	-0.5928	-0.63843	-0.075226	-0.058289	-0.085754	-0.25314	0.028381	0.16632	-0.004883	0.19989	0.052338	0.71686	-0.15976	0.005951	-0.005951
32.265	-0.002136	0.53299	0.013885	0.041046	-0.020142	0.001068	0.018158	0.013275	0.23758	-0.09201	0.1207	0.001526	0.078735	-0.02655	-0.051575	-0.00061	0.037079	-0.50384	-0.26993	-0.011902	-0.014954	-0.062561	0.039825	0.068359	0.16083	0.048218	0.3627	0.02121	-0.17654	-0.37109	-0.00351	-0.001678
32.266	0.008087	0.50308	-0.007172	0.036011	-0.015259	-0.028992	0.010529	-0.005798	0.25345	-0.073853	0.036774	-0.001984	0.068817	-0.071411	-0.1857	-0.008087	0.013275	-0.49515	-0.22476	0.070953	-0.024261	-0.059662	0.014801	0.14206	0.22476	-0.006104	0.48584	-0.002289	-0.25421	-0.41611	-0.001678	0.000763
32.267	0.007019	0.47409	-0.035706	0.019684	-0.011597	-0.024109	-0.000153	0.006409	0.27786	-0.074921	-0.035248	0.001526	0.006714	-0.064392	-0.1326	-0.027618	0.015106	-0.41748	0.045929	0.046234	-0.063629	-0.087738	0.014038	0.10101	0.14328	-0.074463	0.054016	-0.006409	-0.28839	-0.38025	-0.000916	0.003967
32.268	0.004425	0.47455	-0.036621	0.012665	-0.007172	-0.040894	-0.014038	0.00473	0.28	-0.054321	-0.003357	-0.001678	-0.077209	-0.052185	0.098877	-0.014648	0.04303	-0.35141	0.29923	0.040894	-0.088959	-0.16632	0.033875	0.014191	0.084381	-0.045319	-0.40085	-0.00473	-0.53925	-0.38055	-0.001068	-0.000153
32.269	0.004425	0.4924	-0.079956	-0.0177	-0.004578	-0.0383	-0.001984	0.008698	0.28107	-0.000458	-0.028839	-0.002594	-0.054626	-0.056	0.058289	-0.005646	0.054016	-0.32791	-0.001373	0.013885	-0.168	-0.26657	-0.017395	-0.082245	0.028381	0.010376	-0.15564	-0.027008	-1.2874	-0.15503	-0.003052	0.006714
32.27	-0.005035	0.4689	-0.048218	0.000153	-0.011902	-0.013123	-0.008698	0.002747	0.28595	-0.009155	0.052795	-0.000305	-0.0354	-0.091095	0.098114	-0.007477	0.049896	-0.24002	0.056763	-0.00885	-0.13489	-0.31738	-0.07782	-0.096893	-0.03067	0.041199	0.041809	-0.017853	-0.46967	-0.025177	-0.003967	0.007477
32.271	0.005341	0.4538	-0.037079	0.004883	-0.014191	-0.003052	-0.000916	0.009155	0.289	0.007172	0.11261	-0.002136	-0.015717	-0.16464	0.049133	0.000305	0.022125	-0.19531	-0.1091	-0.036163	0.079956	-0.32654	-0.095367	0.001984	-0.030823	0.060272	0.10529	0.048218	0.46616	-0.1593	0.00061	0.000916
32.272	-0.002289	0.43869	0.057831	-0.00061	-0.034332	-0.015717	-0.008545	0.010986	0.2887	-0.035248	-0.031281	-0.006104	0.062408	-0.16754	0.073853	0.007172	0.004578	-0.15747	-0.29404	-0.075226	0.039368	-0.31723	-0.12222	0.028839	0.025635	0.063934	0.37949	0.014648	1.2082	-0.10162	-0.00473	-0.005341
32.273	0.013428	0.44861	0.06424	-0.011444	-0.009918	-0.093231	-0.014343	0.007019	0.29511	-0.073395	-0.11246	-0.005341	0.085297	-0.049591	0.40222	0.009155	-0.013428	-0.086823	-0.4866	-0.10635	-0.16968	-0.27023	-0.11505	0.043182	0.076599	0.014496	0.22766	-0.018463	0.65079	0.002441	-0.004578	-0.008087
32.274	0.014496	0.43137	-0.028381	0.009918	-0.002289	-0.075378	-0.011749	0.011749	0.29068	-0.10254	-0.011749	-0.013733	-0.004272	0.13199	0.21149	-0.000916	0.004578	-0.046234	-0.077667	-0.1001	-0.16907	-0.12802	-0.088196	0.067749	0.14755	-0.0177	0.13748	0.019989	0.33875	-0.094452	0.000763	-0.014954
32.275	0.007782	0.42938	-0.048981	-0.001221	-0.002136	-0.052185	-0.033875	0.007629	0.26703	-0.08728	0.027924	-0.008698	-0.026245	0.1265	-0.36041	0.006104	0.015106	0.001831	0.69168	-0.05249	-0.083771	-0.038605	-0.04837	0.008698	0.13947	-0.024567	-0.1532	0.084686	0.30106	-0.17685	-0.002747	-0.011139
32.276	0.009766	0.43976	0.007629	-0.001831	-0.016022	-0.036163	0.004578	0.007935	0.27924	-0.080872	-0.035858	-0.012207	-0.012817	0.099182	-0.3215	0.016937	0.038452	0.046692	0.45441	-0.000763	-0.09079	0.3006	-0.025635	-0.089111	0.090332	-0.019226	-0.39124	0.003357	0.24307	-0.22324	-0.003052	-0.004272
32.277	0.014191	0.44708	-0.006256	0.006409	0.00824	-0.025177	-0.023499	0.005341	0.27222	-0.014191	-0.001068	-0.008545	0.015869	0.002747	-0.36896	-0.004578	-0.010071	0.030975	0.058594	0.072784	-0.10452	0.27985	0.049438	-0.049438	0.037842	0.014038	-0.3978	-0.042725	0.13825	-0.2771	-0.002136	-0.007019
32.278	0.005341	0.42465	0.047913	0.000458	0.003204	0.00061	-0.025177	0.005188	0.28656	0.030365	0.033722	-0.006714	0.007782	-0.13702	-0.20966	0.005341	-0.037079	0.055389	0.177	0.034637	-0.17487	0.14847	0.076752	0.044403	0.015106	-0.02533	-0.32837	-0.045013	-0.025024	-0.2066	-0.005951	-0.005493
32.279	0.011139	0.42023	0.016327	0.002136	-0.005798	-0.027008	-0.015259	0.005798	0.2742	0.027618	0.008392	-0.005646	0.023346	-0.13962	-0.075684	0.010834	-0.029602	0.097046	-0.049438	-0.04364	-0.046234	-0.002899	0.086365	0.049438	0.013428	-0.005341	-0.24628	-0.036316	-0.075684	-0.1564	-0.00061	-0.002289
32.28	0.00824	0.40237	0.000153	0.002899	-0.005646	-0.046997	-0.010529	0.005493	0.27481	-0.006561	-0.030212	-0.006561	0.11322	-0.08194	0.050507	0.005646	-0.0383	0.11169	-0.077515	-0.040283	0.15289	0.006866	0.063019	-0.002899	-0.043945	0.036774	-0.02243	-0.0383	-0.008698	-0.26443	-0.005951	-0.001526
32.281	0.007019	0.42893	-0.007935	0.002747	-0.00824	-0.007019	-0.016785	0.001221	0.28275	-0.048218	-0.19608	-0.008392	0.16876	-0.18921	0.040283	0.008545	-0.042572	0.2066	0.12726	0.068665	0.090942	0.008545	0.054779	-0.009308	-0.08255	-0.00824	-0.026245	-0.024414	-0.053558	0.005341	-0.003357	-0.004272
32.282	0.004425	0.45624	-0.012665	0.014038	0.007629	-0.026398	-0.02655	0.004578	0.26703	-0.051727	0.071564	-0.009003	0.14481	-0.26962	0.17822	0.00351	-0.01709	0.27863	0.4834	0.18112	-0.070648	-0.02594	0.020752	-0.075226	-0.029602	-0.019836	-0.15595	-0.003967	-0.0914	0.168	-0.00946	0.003052
32.283	-0.004883	0.44098	-0.011139	0.015564	0.015564	-0.022583	-0.010681	0.004883	0.26382	-0.021667	-0.034332	-0.019531	0.063477	-0.094604	0.34241	-0.011139	0.003052	0.25879	0.12848	0.17654	-0.070038	0.028839	-0.033875	-0.10971	0.044098	-0.031281	-0.47775	0.0177	-0.074005	0.041656	-0.001678	0.000305
32.284	-0.005493	0.42908	-0.039673	0.017548	-0.020447	-0.014801	-0.032349	0.015717	0.25391	0.016937	-0.14053	-0.005646	-0.037384	-0.063782	-0.052185	-0.015259	-0.004272	0.298	0.049591	0.046082	-0.023651	0.085907	-0.28488	-0.03006	0.13397	-0.008392	-0.27893	0.049286	0.11337	0.036469	0.000916	-0.009155
32.285	0.004425	0.41245	-0.017242	0.0177	-0.075531	-0.044861	-0.016327	0.02655	0.25055	0.009308	-0.10452	-0.003204	-0.06485	-0.34103	-0.11795	-0.008087	-0.022888	0.37323	0.26916	-0.038147	-0.009766	-0.017853	-0.30945	0.056915	0.1149	0.040131	0.86746	0.052795	0.3006	-0.038147	-0.007629	-0.003357
32.286	0.015106	0.42206	-0.031281	0.011139	-0.053864	-0.1297	-0.009766	0.007019	0.2504	-0.022278	-0.044403	-0.006256	-0.028229	-0.23621	-0.18524	-0.02243	-0.006561	0.46539	0.22644	-0.005188	-0.066223	-0.15976	-0.059052	-0.071259	-0.014343	0.036163	1.6141	0.032349	0.26932	-0.33646	-0.002441	-0.004578
32.287	0.02243	0.39841	-0.012665	0.003815	-0.08194	-0.16113	-0.022736	0.008392	0.23407	-0.058289	-0.016327	-0.007172	0.045929	-0.086212	-0.11139	-0.015869	-0.005951	0.49439	0.14832	-0.019836	-0.068512	-0.16403	-0.031128	-0.13473	-0.060577	0.005341	0.70877	0.005188	0.52917	-0.21439	-0.00473	0.006561
32.288	0.02594	0.34637	-0.03952	0.005341	0.018158	-0.11429	-0.001678	0.007629	0.22492	-0.058746	0.025177	-0.00946	0.04837	-0.050812	-0.14282	0.011902	-0.008392	0.50079	0.34302	-0.02121	-0.069427	-0.09491	-0.11276	-0.093689	-0.064087	0.042877	-0.66696	-0.00946	0.91476	-0.20386	-0.005646	0.000458
32.289	0.025024	0.30243	-0.026703	0.009003	0.072784	-0.037537	-0.011139	0.006561	0.21515	-0.081635	0.056	-0.015106	0.0383	-0.037842	-0.036011	0.010986	0.001831	0.51392	0.29297	0.018616	-0.047913	-0.035095	-0.043793	-0.074158	-0.005646	0.046539	-1.5213	-0.007172	0.78919	0.061951	0.001678	-0.005188
32.29	0.01297	0.30456	-0.03891	0.007629	0.045166	-0.021057	-0.01358	0.010529	0.20828	-0.10864	0.020447	-0.012207	0.10803	-0.072937	0.007019	-0.009918	0.020294	0.49362	0.27817	0.027008	-0.047302	-0.048523	0.029755	-0.025177	-0.010529	0.011444	-0.40405	0.00351	-0.43198	0.038605	0.001526	-0.010681
32.291	0.003815	0.28397	-0.062714	0.003052	0.048523	-0.041962	0.002136	0.002289	0.20874	-0.091248	0.019989	-0.007782	0.14481	0.020294	0.4686	-0.00946	0.029602	0.56427	0.29938	0.041962	-0.078125	-0.054474	-0.085907	0.051575	-0.10193	0.013275	0.36438	-0.000305	-1.3167	-0.042725	-0.000763	-0.016174
32.292	0.017548	0.26962	-0.067902	0.007935	0.001984	-0.057678	-0.008392	-0.007019	0.22049	-0.13199	0.074158	-0.014038	0.12894	0.013275	-0.03067	0.003815	0.014954	0.5246	0.22537	0.001221	-0.12817	-0.12924	-0.18097	0.10407	-0.04837	0.029602	0.55435	-0.006256	-1.0793	-0.12528	-0.003662	-0.012512
32.293	0.016022	0.26489	-0.080719	0.007172	0.002747	-0.079041	0.003815	0.006561	0.21103	-0.17181	0.019836	-0.007782	0.13794	-0.083008	-0.018311	-0.003662	0.036469	0.52963	0.20599	0.002899	-0.14221	-0.17151	-0.002899	0.17853	0.015106	0.032349	0.51498	-0.008545	-0.8696	-0.032959	-0.004883	-0.009613
32.294	0.017395	0.2829	-0.086365	0.01236	0.003662	-0.10788	0.012207	-0.000153	0.21515	-0.15533	0.001221	-0.016327	0.10635	0.003967	-0.036011	0.001221	0.024719	0.62332	0.059967	-0.001221	-0.11719	-0.11475	0.036926	0.069427	-0.013733	0.042725	0.081329	-0.010834	0.8078	0.059052	-0.004578	-0.003204
32.295	0.019073	0.31387	-0.085449	0.001831	0.010071	-0.13275	0.010681	0.001984	0.2182	-0.066528	0.011902	-0.006866	0.02594	0.12589	-0.046997	0.007019	0.015869	0.57083	-0.13138	-0.037689	-0.16602	-0.003662	-0.052032	0.017395	-0.017853	0.049744	-0.31265	-0.020752	0.50659	0.019684	-0.002289	-0.003357
